PathFileType	4	(X/Y/Z)	C:\Users\dbl\Desktop\LZH\BX\bx_y_5_901.trc
DataRate	CameraRate	NumFrames	NumMarkers	Units	OrigDataRate	OrigDataStartFrame	OrigNumFrames
50.00	50.00	      5	43	mm	50.00	1367	      1562
Frame#	Time	Top.Head			R.Acromium			L.Acromium			Sternum			R.ASIS			L.ASIS			V.Sacral			R.Thigh.Upper			R.Thigh.Front			R.Thigh.Rear			R.Knee.Lat			R.Knee.Med			R.Shank.Upper			R.Shank.Front			R.Shank.Rear			R.Ankle.Lat			R.Midfoot.Lat			R.Toe.Lat			R.Toe.Tip			R.Toe.Med			R.Ankle.Med			R.Midfoot.Sup			R.Heel			L.Thigh.Upper			L.Thigh.Front			L.Thigh.Rear			L.Knee.Lat			L.Knee.Med			L.Shank.Upper			L.Shank.Front			L.Shank.Rear			L.Ankle.Lat			L.Midfoot.Lat			L.Toe.Lat			L.Toe.Tip			L.Toe.Med			L.Ankle.Med			L.Midfoot.Sup			L.Heel			origin1 front left			origin2 front right			origin 3 back right			origin 4 back leftt			
		X1	Y1	Z1	X2	Y2	Z2	X3	Y3	Z3	X4	Y4	Z4	X5	Y5	Z5	X6	Y6	Z6	X7	Y7	Z7	X8	Y8	Z8	X9	Y9	Z9	X10	Y10	Z10	X11	Y11	Z11	X12	Y12	Z12	X13	Y13	Z13	X14	Y14	Z14	X15	Y15	Z15	X16	Y16	Z16	X17	Y17	Z17	X18	Y18	Z18	X19	Y19	Z19	X20	Y20	Z20	X21	Y21	Z21	X22	Y22	Z22	X23	Y23	Z23	X24	Y24	Z24	X25	Y25	Z25	X26	Y26	Z26	X27	Y27	Z27	X28	Y28	Z28	X29	Y29	Z29	X30	Y30	Z30	X31	Y31	Z31	X32	Y32	Z32	X33	Y33	Z33	X34	Y34	Z34	X35	Y35	Z35	X36	Y36	Z36	X37	Y37	Z37	X38	Y38	Z38	X39	Y39	Z39	X40	Y40	Z40	X41	Y41	Z41	X42	Y42	Z42	X43	Y43	Z43	

1367	27.320	-336.68793	268.40857	1682.91272	-381.01648	71.93207	1390.75000	-381.84250	449.31894	1382.86780	-429.07877	262.33746	1249.07214	-641.14215	144.08185	1041.81421	-642.46429	386.38177	1050.17212	-858.71057	241.40332	1040.32300	-678.14386	88.93352	891.00885	-634.27820	148.42450	839.47675	-722.16217	78.72274	744.72076	-721.08881	113.97369	604.16388	-701.08514	221.31281	557.39355	-749.00061	112.66245	533.57758	-665.99023	161.53287	548.63531	-776.28613	115.96445	461.39505	-695.54370	138.57942	210.21461	-616.13263	76.78722	164.62773	-569.13300	53.78469	160.81741	-493.40854	101.00121	163.41283	-533.19464	147.50352	168.46547	-643.91412	211.44913	225.99045	-595.52039	185.77803	178.20145	-720.61713	208.58151	168.72415	-685.65057	431.50354	880.72430	-636.20422	373.84012	836.61310	-726.52814	442.30844	748.35376	-737.21191	413.90720	621.61523	-691.46136	310.05103	572.88617	-734.17432	412.25082	557.50598	-676.26428	372.02951	542.87842	-776.12207	418.70633	498.01202	-685.78467	420.85168	212.15370	-583.39862	470.11566	163.89909	-543.44165	478.78931	158.62865	-482.40875	428.02603	166.81892	-526.20880	389.56876	177.80128	-649.30145	333.00812	209.92882	-596.17902	351.38513	172.61604	-733.05927	349.86890	164.10776	-443.68698	449.11337	146.85648	-450.60120	75.27631	144.62184	-806.34503	82.61983	142.66795	-799.38342	458.28973	145.62109	
1368	27.340	-352.66010	266.22983	1697.97253	-389.58749	70.56870	1403.22046	-389.53387	448.87610	1396.38635	-431.78256	261.81058	1257.10181	-636.91553	143.64706	1043.10120	-638.37238	385.55252	1051.31641	-853.98773	241.14890	1039.28784	-673.31921	88.83831	891.75470	-629.60657	148.16969	840.25409	-717.91937	78.98752	745.33765	-717.85345	114.05997	604.79065	-698.09607	221.32982	558.12775	-746.30328	112.84068	534.18103	-663.26788	161.84573	548.64325	-774.25488	116.26611	462.29968	-695.29175	138.84969	210.26733	-616.04327	76.90245	164.72171	-569.14948	53.82816	160.80537	-493.40100	100.92603	163.39630	-533.15961	147.54030	168.48671	-643.51678	211.61247	225.77019	-595.42212	185.90503	178.09120	-720.51569	208.72375	168.67921	-680.68262	431.36694	881.40247	-631.37976	373.71146	837.11377	-722.03265	441.96817	749.09320	-733.73529	413.68527	622.40540	-688.53674	309.75330	573.62848	-731.19080	411.99628	558.16803	-673.55353	371.74911	543.16614	-773.60193	418.32782	498.92599	-685.56866	421.01883	212.67795	-583.37549	470.05289	163.99316	-543.44647	478.70944	158.68814	-482.36731	428.00388	166.87228	-526.19818	389.56302	177.81921	-649.06537	332.85446	209.91124	-596.25946	351.44006	172.46112	-733.03607	349.74417	164.10892	-443.68121	449.10370	146.85837	-450.59750	75.28786	144.61490	-806.32886	82.59188	142.67133	-799.37598	458.30798	145.64296	
1369	27.360	-368.62766	264.15070	1712.16846	-398.25797	69.17418	1415.38208	-397.41904	448.36639	1409.29456	-434.60263	261.31079	1265.26404	-632.62128	143.27643	1044.40991	-634.26062	384.86176	1052.61426	-849.13458	240.92209	1038.30176	-668.50311	88.73454	892.43237	-624.91602	147.96837	840.95898	-713.66162	79.22898	745.94257	-714.60901	114.14322	605.37915	-695.12219	221.36711	558.78278	-743.61230	113.01685	534.77826	-660.55029	162.15863	548.63800	-772.20355	116.58895	463.17087	-695.05005	139.12076	210.32675	-615.96069	77.01152	164.81659	-569.16968	53.86804	160.80125	-493.40646	100.85037	163.38603	-533.12573	147.56454	168.50241	-643.09509	211.76851	225.59166	-595.33063	186.04565	177.94188	-720.42419	208.84235	168.68083	-675.69977	431.21991	882.07013	-626.56946	373.51047	837.49579	-717.54724	441.60870	749.81329	-730.24414	413.46500	623.16339	-685.61719	309.45227	574.35364	-728.18207	411.72208	558.80444	-670.83447	371.45398	543.44299	-771.08887	417.96265	499.84149	-685.34521	421.15283	213.16708	-583.34943	469.98492	164.08328	-543.44720	478.62155	158.74628	-482.31363	427.97290	166.91756	-526.17462	389.55429	177.83435	-648.77826	332.67914	209.95201	-596.32819	351.48825	172.31569	-733.00098	349.60229	164.11053	-443.67517	449.09515	146.86185	-450.59357	75.29657	144.61214	-806.31342	82.56982	142.67032	-799.36481	458.33286	145.66722	
1370	27.380	-384.52084	262.18491	1725.46387	-406.99606	67.76324	1427.13403	-405.46359	447.80246	1421.54639	-437.51904	260.85208	1273.51929	-628.25806	142.98273	1045.74121	-630.13019	384.33774	1054.05566	-844.20483	240.74023	1037.37012	-663.70203	88.63980	892.99518	-620.21796	147.79871	841.58521	-709.41113	79.44063	746.52856	-711.37958	114.22035	605.92657	-692.17822	221.42439	559.36133	-740.95215	113.19179	535.36627	-657.85089	162.43686	548.64001	-770.14642	116.93184	464.00891	-694.83289	139.38406	210.39485	-615.89764	77.10834	164.90111	-569.19733	53.90323	160.80475	-493.42682	100.77586	163.38535	-533.09277	147.57295	168.51688	-642.65576	211.91670	225.45367	-595.25226	186.19951	177.75153	-720.33746	208.94682	168.71150	-670.71887	431.05597	882.72418	-621.79578	373.22702	837.75745	-713.09277	441.23102	750.51947	-726.75104	413.24985	623.88776	-682.70056	309.16367	575.04199	-725.16132	411.43173	559.41095	-668.10602	371.14536	543.70221	-768.58069	417.61615	500.75336	-685.10681	421.21088	213.56152	-583.32239	469.91376	164.16512	-543.44360	478.52805	158.80444	-482.24823	427.93597	166.94736	-526.13562	389.54178	177.84683	-648.45380	332.49417	210.02156	-596.38568	351.53156	172.17818	-732.95648	349.44678	164.10951	-443.67166	449.08704	146.86574	-450.58969	75.30106	144.61342	-806.29810	82.55313	142.66835	-799.35120	458.36124	145.68968	
1371	27.400	-400.27173	260.33759	1737.83679	-415.77783	66.35472	1438.38452	-413.64142	447.20023	1433.10828	-440.49481	260.44476	1281.82129	-623.82886	142.76262	1047.08740	-625.97498	383.99094	1055.60364	-839.25610	240.61191	1036.49158	-658.92828	88.55925	893.41272	-615.51917	147.63062	842.13043	-705.18878	79.61824	747.08557	-708.18726	114.28903	606.43146	-689.27417	221.49513	559.87299	-738.34167	113.36371	535.94165	-655.18164	162.65471	548.65912	-768.10059	117.28867	464.81824	-694.64850	139.63083	210.47263	-615.86353	77.18793	164.96628	-569.23462	53.93234	160.81488	-493.46310	100.70374	163.39731	-533.06140	147.56389	168.53436	-642.21222	212.05737	225.34477	-595.19214	186.36525	177.52304	-720.25153	209.04584	168.75330	-665.75293	430.86951	883.35376	-617.07141	372.86880	837.91650	-708.68097	440.83759	751.21155	-723.26740	413.04169	624.57623	-679.78644	308.89633	575.67896	-722.14374	411.13138	559.98450	-665.36884	370.82623	543.93665	-766.07446	417.29205	501.65469	-684.85022	421.16119	213.81274	-583.29596	469.84225	164.23521	-543.43616	478.43176	158.86383	-482.17471	427.89618	166.95723	-526.08185	389.52570	177.85770	-648.11096	332.30753	210.08958	-596.43457	351.57288	172.04424	-732.90924	349.28687	164.10182	-443.67279	449.07935	146.86899	-450.58585	75.30074	144.61798	-806.28271	82.54153	142.66776	-799.33704	458.38889	145.70645	
